<svg id="Capa_2" data-name="Capa 2" xmlns="http://www.w3.org/2000/svg" viewBox="0 0 632.25 445.87"><defs><style>.cls-1{fill:#fcfcfc;}.cls-1,.cls-2{stroke:#333;stroke-miterlimit:10;stroke-width:5px;}.cls-2{fill:#333;}</style></defs><title>balls</title><path class="cls-1" d="M638,451.41c0,86.15-68.78,156-153.62,156s-153.62-69.84-153.62-156,68.78-156,153.62-156A130.25,130.25,0,0,1,525.19,301C580.74,318,638,376,638,451.41Z" transform="translate(-174.63 -292.84)"/><polygon class="cls-2" points="286.31 199.76 262.88 158.56 286.31 117.36 333.15 117.36 356.58 158.56 333.15 199.76 286.31 199.76"/><path class="cls-2" d="M484.36,299.54" transform="translate(-174.63 -292.84)"/><path class="cls-2" d="M449.16,299.54s48.44-10.34,76,1.45C525.19,301,492,334.28,449.16,299.54Z" transform="translate(-174.63 -292.84)"/><path class="cls-2" d="M400.23,581s-40.12-29.43-50.1-58.09C350.13,522.9,396.69,525.41,400.23,581Z" transform="translate(-174.63 -292.84)"/><path class="cls-2" d="M337,410.78s14.94-47.91,38.62-66.53C375.62,344.25,387.88,389.93,337,410.78Z" transform="translate(-174.63 -292.84)"/><path class="cls-2" d="M592.35,344.49s34.47,36.07,39.39,66.06C631.74,410.54,586.32,399.85,592.35,344.49Z" transform="translate(-174.63 -292.84)"/><path class="cls-2" d="M614.08,530.28s-25.53,43.06-52.82,55.55C561.26,585.83,559.83,538.51,614.08,530.28Z" transform="translate(-174.63 -292.84)"/><g id="Capa_3" data-name="Capa 3"><path class="cls-1" d="M484.36,580.22c0,86.15-68.78,156-153.62,156s-153.62-69.84-153.62-156,68.78-156,153.62-156a130.25,130.25,0,0,1,40.83,5.57C427.12,446.81,484.36,504.78,484.36,580.22Z" transform="translate(-174.63 -292.84)"/><polygon class="cls-2" points="132.69 328.58 109.27 287.38 132.69 246.18 179.54 246.18 202.96 287.38 179.54 328.58 132.69 328.58"/><path class="cls-2" d="M330.74,428.35" transform="translate(-174.63 -292.84)"/><path class="cls-2" d="M295.54,428.35s48.44-10.34,76,1.45C371.57,429.81,338.42,463.09,295.54,428.35Z" transform="translate(-174.63 -292.84)"/><path class="cls-2" d="M246.62,709.81s-40.12-29.43-50.1-58.09C196.52,651.72,243.07,654.22,246.62,709.81Z" transform="translate(-174.63 -292.84)"/><path class="cls-2" d="M183.39,539.6s14.94-47.91,38.62-66.53C222,473.07,234.26,518.75,183.39,539.6Z" transform="translate(-174.63 -292.84)"/><path class="cls-2" d="M438.74,473.31s34.47,36.07,39.39,66.06C478.12,539.36,432.71,528.67,438.74,473.31Z" transform="translate(-174.63 -292.84)"/><path class="cls-2" d="M460.47,659.1s-25.53,43.06-52.82,55.55C407.64,714.65,406.21,667.33,460.47,659.1Z" transform="translate(-174.63 -292.84)"/><path class="cls-1" d="M804.38,580.19c0,86.15-68.78,156-153.62,156s-153.62-69.84-153.62-156,68.78-156,153.62-156a130.25,130.25,0,0,1,40.83,5.57C747.14,446.78,804.38,504.75,804.38,580.19Z" transform="translate(-174.63 -292.84)"/><polygon class="cls-2" points="452.71 328.54 429.29 287.34 452.71 246.15 499.56 246.15 522.99 287.34 499.56 328.54 452.71 328.54"/><path class="cls-2" d="M650.76,428.32" transform="translate(-174.63 -292.84)"/><path class="cls-2" d="M615.56,428.32s48.44-10.34,76,1.45C691.6,429.77,658.44,463.06,615.56,428.32Z" transform="translate(-174.63 -292.84)"/><path class="cls-2" d="M566.64,709.77s-40.12-29.43-50.1-58.09C516.54,651.68,563.09,654.19,566.64,709.77Z" transform="translate(-174.63 -292.84)"/><path class="cls-2" d="M503.41,539.56S518.35,491.65,542,473C542,473,554.28,518.71,503.41,539.56Z" transform="translate(-174.63 -292.84)"/><path class="cls-2" d="M758.76,473.27s34.47,36.07,39.39,66.06C798.15,539.33,752.73,528.64,758.76,473.27Z" transform="translate(-174.63 -292.84)"/><path class="cls-2" d="M780.49,659.06S755,702.12,727.66,714.61C727.66,714.61,726.23,667.29,780.49,659.06Z" transform="translate(-174.63 -292.84)"/></g></svg>