<svg id="Capa_1" data-name="Capa 1" xmlns="http://www.w3.org/2000/svg" viewBox="0 0 566.86 567"><defs><style>.cls-1{fill:#fcfcfc;}.cls-1,.cls-2{stroke:#333;stroke-miterlimit:10;stroke-width:5px;}.cls-2{fill:#333;}</style></defs><title>ball</title><path class="cls-1" d="M780.93,500c0,155.15-125.78,280.93-280.93,280.93S219.07,655.15,219.07,500,344.85,219.07,500,219.07a241.68,241.68,0,0,1,74.67,10C676.26,259.73,780.93,364.13,780.93,500Z" transform="translate(-216.57 -216.43)"/><polygon class="cls-2" points="240.59 357.76 197.76 283.57 240.59 209.37 326.27 209.37 369.11 283.57 326.27 357.76 240.59 357.76"/><path class="cls-2" d="M500,226.48" transform="translate(-216.57 -216.43)"/><path class="cls-2" d="M435.62,226.48s88.58-18.62,139.05,2.62C574.67,229.1,514,289.05,435.62,226.48Z" transform="translate(-216.57 -216.43)"/><path class="cls-2" d="M346.15,733.39s-73.37-53-91.62-104.63C254.52,628.76,339.67,633.28,346.15,733.39Z" transform="translate(-216.57 -216.43)"/><path class="cls-2" d="M230.52,426.83S257.85,340.54,301.14,307C301.14,307,323.55,389.29,230.52,426.83Z" transform="translate(-216.57 -216.43)"/><path class="cls-2" d="M697.5,307.44s63,65,72,119C769.53,426.41,686.47,407.16,697.5,307.44Z" transform="translate(-216.57 -216.43)"/><path class="cls-2" d="M737.24,642.05s-46.69,77.55-96.61,100C640.63,742.1,638,656.87,737.24,642.05Z" transform="translate(-216.57 -216.43)"/></svg>