<svg id="Capa_2" data-name="Capa 2" xmlns="http://www.w3.org/2000/svg" viewBox="0 0 951.9 520.51"><defs><style>.cls-1,.cls-2,.cls-3,.cls-4,.cls-5{fill:none;stroke:#333;stroke-linejoin:round;}.cls-1{stroke-width:18px;}.cls-2{stroke-width:7px;}.cls-3{stroke-width:3px;}.cls-4{stroke-width:4px;}.cls-5{stroke-width:5px;}</style></defs><title>but-grand</title><polyline class="cls-1" points="9 520.51 9 9 942.9 9 942.9 520.51"/><path class="cls-2" d="M902.33,671.47H105.72V267.41H902.33V671.47Z" transform="translate(-27.86 -205.76)"/><polyline class="cls-3" points="9 19.17 77.86 61.65 77.86 90.36 874.47 90.36 873.41 142.9 77.86 142.9 77.86 181.88 874.47 181.88 874.47 256.46 77.86 256.46 77.86 305.61 874.47 305.61 873.41 349.68 77.86 349.68 77.86 398.83 874.47 398.83 874.47 439.51 77.86 439.51"/><path class="cls-4" d="M105.72,671.47" transform="translate(-27.86 -205.76)"/><polyline class="cls-3" points="874.47 61.65 936.12 19.17 936.12 57.3 874.47 90.36 874.47 130.96 936.12 91.17 936.12 130.96 874.47 173.41 874.47 203.91 936.12 168.32 936.12 224.25 871.71 236.12 874.47 256.46 942.9 256.46 942.9 305.61 874.47 289.75 874.47 325.95 936.12 342.05 936.12 371.71 873.41 349.68 874.47 371.71 936.12 401.13 942.9 432.73 874.47 398.83 874.47 417.48 77.86 417.48 77.86 371.71 874.47 371.71 874.47 325.95 77.86 325.95 77.86 276.8 874.47 276.8 874.47 193.75 77.86 193.75 77.86 156.46 874.47 156.46 874.47 119.02 77.86 119.02 77.86 90.36 9 61.65"/><line class="cls-3" x1="9" y1="95.44" x2="77.86" y2="119.02"/><line class="cls-3" x1="9" y1="119.02" x2="77.86" y2="142.9"/><path class="cls-3" d="M36.86,348.66l68.86,13.56" transform="translate(-27.86 -205.76)"/><line class="cls-3" x1="9" y1="163.24" x2="77.86" y2="173.41"/><path class="cls-3" d="M36.86,245.27" transform="translate(-27.86 -205.76)"/><line class="cls-3" x1="9" y1="39.51" x2="77.86" y2="75.1"/><line class="cls-3" x1="9" y1="183.58" x2="77.86" y2="193.75"/><line class="cls-3" x1="9" y1="512.39" x2="77.86" y2="465.71"/><line class="cls-3" x1="9" y1="497.14" x2="77.86" y2="447.98"/><line class="cls-3" x1="9" y1="472.56" x2="77.86" y2="429.34"/><line class="cls-3" x1="9" y1="439.51" x2="75.1" y2="407.31"/><line class="cls-3" x1="15.78" y1="417.47" x2="77.86" y2="384.79"/><line class="cls-3" x1="9" y1="384.79" x2="77.86" y2="349.68"/><line class="cls-3" x1="15.78" y1="401.13" x2="77.86" y2="371.71"/><line class="cls-3" x1="15.78" y1="358.15" x2="77.86" y2="325.95"/><line class="cls-3" x1="9" y1="325.95" x2="77.86" y2="305.61"/><line class="cls-3" x1="15.78" y1="294.24" x2="77.86" y2="285.27"/><line class="cls-3" x1="9" y1="264.75" x2="77.86" y2="264.75"/><line class="cls-3" x1="15.78" y1="239.56" x2="75.1" y2="247.98"/><line class="cls-3" x1="15.78" y1="212.39" x2="75.1" y2="224.25"/><line class="cls-3" x1="9" y1="305.61" x2="77.86" y2="294.24"/><line class="cls-3" x1="15.78" y1="342.05" x2="77.86" y2="315.78"/><line class="cls-3" x1="15.78" y1="447.98" x2="77.86" y2="417.47"/><line class="cls-3" x1="15.78" y1="276.8" x2="77.86" y2="276.8"/><line class="cls-3" x1="9" y1="75.1" x2="77.86" y2="107.23"/><polyline class="cls-3" points="15.78 224.25 77.86 236.12 871.71 236.12 874.47 212.39 77.86 212.39 15.78 193.75"/><line class="cls-3" x1="9" y1="247.98" x2="77.86" y2="256.46"/><line class="cls-3" x1="15.78" y1="107.23" x2="75.1" y2="130.96"/><polyline class="cls-3" points="874.47 398.83 874.47 439.51 942.9 472.56 936.12 512.39 874.47 465.71"/><line class="cls-3" x1="936.12" y1="39.51" x2="874.47" y2="75.1"/><line class="cls-3" x1="936.12" y1="75.1" x2="874.47" y2="107.23"/><line class="cls-3" x1="936.12" y1="107.23" x2="874.47" y2="156.46"/><line class="cls-3" x1="936.12" y1="149.68" x2="874.47" y2="193.75"/><line class="cls-3" x1="936.12" y1="193.75" x2="874.47" y2="212.39"/><line class="cls-3" x1="874.47" y1="455.61" x2="936.12" y2="489.05"/><line class="cls-3" x1="874.47" y1="417.47" x2="942.9" y2="450.95"/><line class="cls-3" x1="874.47" y1="384.79" x2="942.9" y2="417.47"/><line class="cls-3" x1="873.82" y1="358.15" x2="942.9" y2="384.79"/><line class="cls-3" x1="874.47" y1="305.61" x2="942.9" y2="325.95"/><line class="cls-3" x1="874.47" y1="276.8" x2="942.9" y2="276.8"/><line class="cls-3" x1="874.47" y1="243.77" x2="936.12" y2="243.77"/><line class="cls-3" x1="873.09" y1="224.25" x2="936.12" y2="212.39"/><polyline class="cls-3" points="46.82 9 88.66 61.65 114.08 61.65 80.45 9 122.56 9 144.59 61.65 166.63 61.65 149.68 9 185.27 9 188.66 61.65 214.09 61.65 203.91 9 225.95 9 241.2 61.65 264.93 61.65 246.29 9 273.41 9 290.36 61.65 312.39 61.65 288.66 9 312.39 9 331.03 57.3 358.15 61.65 337.81 9 371.71 9 386.97 61.65 403.92 61.65 395.44 9 414.08 9 420.86 57.3 434.42 61.65 434.42 9 461.54 9 454.76 61.65 483.58 61.65 483.58 9 498.83 9 497.14 61.65 520.86 61.65 520.86 9 541.2 9 547.98 61.65 571.71 61.65 564.93 9 593.75 9 593.75 57.3 624.25 61.65 624.25 9 647.98 9 641.2 61.65 663.24 61.65 673.41 9 698.83 9 681.88 61.65 710.7 61.65 722.56 9 768.32 9 749.68 61.65 783.58 61.65 800.52 9 832.73 9 815.78 57.3 831.03 61.65 859.85 9 897.14 9 851.37 61.65 851.37 465.71 831.03 465.71 831.03 61.65 803.91 61.65 803.91 465.71 783.58 465.71 783.58 61.65 763.24 61.65 763.24 465.71 732.73 465.71 732.73 61.65 710.7 61.65 710.7 465.71 681.88 465.71 681.88 61.65 654.76 61.65 654.76 465.71 624.25 465.71 624.25 61.65 603.91 61.65 603.91 465.71 571.71 465.71 571.71 61.65 547.98 61.65 547.98 465.71 520.86 465.71 520.86 61.65 497.14 61.65 497.14 465.71 475.95 465.71 476.16 61.65 454.76 61.65 454.76 465.71 434.42 465.71 434.42 61.65 403.92 61.65 403.92 465.71 371.71 465.71 371.71 61.65 339.51 61.65 339.51 465.71 312.39 465.71 312.39 61.65 290.36 61.65 290.36 465.71 264.93 465.71 264.93 61.65 241.2 61.65 241.2 465.71 214.09 465.71 214.09 61.65 188.66 61.65 188.66 465.71 156.46 465.71 156.46 61.65 122.56 61.65 129.34 465.71 97.14 465.71 97.14 61.65"/><line class="cls-3" x1="166.63" y1="9" x2="178.49" y2="61.65"/><line class="cls-3" x1="742.9" y1="19.17" x2="732.73" y2="61.65"/><line class="cls-3" x1="783.58" y1="9" x2="763.24" y2="61.65"/><line class="cls-3" x1="915.78" y1="9" x2="874.47" y2="61.65"/><line class="cls-3" x1="102.22" y1="9" x2="131.03" y2="61.65"/><line class="cls-3" x1="351.37" y1="9" x2="371.71" y2="61.65"/><line class="cls-3" x1="607.31" y1="9" x2="603.92" y2="61.65"/><line class="cls-3" x1="810.69" y1="9" x2="793.75" y2="61.65"/><path class="cls-5" d="M36.86,718.15" transform="translate(-27.86 -205.76)"/><path class="cls-1" d="M902.33,267.41" transform="translate(-27.86 -205.76)"/></svg>