<svg id="Capa_1" data-name="Capa 1" xmlns="http://www.w3.org/2000/svg" viewBox="0 0 755.64 526.97"><defs><style>.cls-1,.cls-2{fill:none;stroke:#333;stroke-linejoin:round;}.cls-1{stroke-width:37px;}.cls-2{stroke-width:7px;}</style></defs><title>but</title><polyline class="cls-1" points="18.5 526.98 18.5 18.5 737.14 18.5 737.14 526.98"/><rect class="cls-2" x="101.76" y="94.7" width="552.05" height="383.98"/><line class="cls-2" x1="101.76" y1="94.7" x2="27.11" y2="23.79"/><line class="cls-2" x1="653.81" y1="94.7" x2="726.72" y2="22.06"/><line class="cls-2" x1="28.36" y1="516.74" x2="101.76" y2="478.68"/><line class="cls-2" x1="652.78" y1="478.68" x2="729.17" y2="520.19"/><line class="cls-2" x1="101.76" y1="132.76" x2="653.81" y2="132.76"/><line class="cls-2" x1="101.76" y1="246.91" x2="653.81" y2="246.91"/><line class="cls-2" x1="101.27" y1="211.46" x2="653.32" y2="211.46"/><line class="cls-2" x1="103.49" y1="174.65" x2="655.54" y2="174.65"/><line class="cls-2" x1="103.49" y1="279.78" x2="655.54" y2="279.78"/><line class="cls-2" x1="101.76" y1="315.39" x2="653.81" y2="315.39"/><line class="cls-2" x1="103.49" y1="390.47" x2="655.54" y2="390.47"/><line class="cls-2" x1="101.11" y1="356.31" x2="653.16" y2="356.31"/><line class="cls-2" x1="103.49" y1="428.75" x2="655.54" y2="428.75"/><line class="cls-2" x1="101.44" y1="459.66" x2="653.49" y2="459.66"/><rect class="cls-2" x="315.9" y="208.95" width="384.3" height="552.05" transform="translate(864.5 -222.73) rotate(90)"/><line class="cls-2" x1="600.84" y1="93.18" x2="600.84" y2="477.48"/><line class="cls-2" x1="436.71" y1="93.18" x2="436.71" y2="477.48"/><line class="cls-2" x1="487.69" y1="92.84" x2="487.69" y2="477.14"/><line class="cls-2" x1="540.61" y1="94.39" x2="540.61" y2="478.68"/><line class="cls-2" x1="389.47" y1="94.39" x2="389.47" y2="478.68"/><line class="cls-2" x1="338.26" y1="93.18" x2="338.26" y2="477.48"/><line class="cls-2" x1="230.32" y1="94.39" x2="230.32" y2="478.68"/><line class="cls-2" x1="279.44" y1="92.72" x2="279.44" y2="477.02"/><line class="cls-2" x1="175.28" y1="94.39" x2="175.28" y2="478.68"/><line class="cls-2" x1="130.85" y1="92.96" x2="130.85" y2="477.26"/><line class="cls-2" x1="30.58" y1="58.38" x2="101.11" y2="113.73"/><line class="cls-2" x1="30.58" y1="94.7" x2="101.76" y2="132.76"/><line class="cls-2" x1="21.42" y1="128.92" x2="101.11" y2="156.97"/><line class="cls-2" x1="27.11" y1="163.89" x2="101.11" y2="188.1"/><line class="cls-2" x1="32.32" y1="478.68" x2="101.44" y2="459.66"/><line class="cls-2" x1="28.85" y1="459.66" x2="103.49" y2="442.36"/><line class="cls-2" x1="28.85" y1="428.75" x2="101.11" y2="418.15"/><line class="cls-2" x1="28.85" y1="267.67" x2="103.49" y2="279.78"/><line class="cls-2" x1="28.85" y1="236.53" x2="101.76" y2="246.91"/><line class="cls-2" x1="28.85" y1="211.46" x2="101.11" y2="224.43"/><line class="cls-2" x1="28.85" y1="186.38" x2="103.49" y2="203.67"/><line class="cls-2" x1="28.85" y1="400.85" x2="103.49" y2="390.47"/><line class="cls-2" x1="28.85" y1="369.72" x2="101.11" y2="366.26"/><line class="cls-2" x1="28.85" y1="348.31" x2="101.11" y2="340.31"/><line class="cls-2" x1="28.85" y1="323.02" x2="101.76" y2="315.39"/><line class="cls-2" x1="28.85" y1="295.84" x2="101.11" y2="295.84"/><line class="cls-2" x1="730.56" y1="59.4" x2="657.16" y2="97.45"/><line class="cls-2" x1="733.66" y1="499.44" x2="657.81" y2="462.41"/><line class="cls-2" x1="728.34" y1="481.43" x2="657.16" y2="443.38"/><line class="cls-2" x1="737.5" y1="447.22" x2="657.81" y2="419.17"/><line class="cls-2" x1="731.81" y1="412.25" x2="657.81" y2="388.03"/><line class="cls-2" x1="726.6" y1="97.45" x2="657.48" y2="116.48"/><line class="cls-2" x1="730.08" y1="116.48" x2="655.43" y2="133.78"/><line class="cls-2" x1="730.08" y1="147.39" x2="657.81" y2="157.99"/><line class="cls-2" x1="730.08" y1="308.47" x2="655.43" y2="296.36"/><line class="cls-2" x1="730.08" y1="339.6" x2="657.16" y2="329.23"/><line class="cls-2" x1="730.08" y1="364.68" x2="657.81" y2="351.71"/><line class="cls-2" x1="730.08" y1="389.76" x2="655.43" y2="372.47"/><line class="cls-2" x1="730.08" y1="175.29" x2="655.43" y2="185.67"/><line class="cls-2" x1="730.08" y1="206.42" x2="657.81" y2="209.88"/><line class="cls-2" x1="730.08" y1="227.83" x2="657.81" y2="235.83"/><line class="cls-2" x1="730.08" y1="253.12" x2="657.16" y2="260.75"/><line class="cls-2" x1="730.08" y1="280.29" x2="657.81" y2="280.29"/><line class="cls-2" x1="66.88" y1="26.73" x2="119.52" y2="94.29"/><line class="cls-2" x1="699.47" y1="27.68" x2="623.19" y2="92.81"/><line class="cls-2" x1="649.34" y1="27.77" x2="596.94" y2="93.46"/><line class="cls-2" x1="602.1" y1="19.4" x2="563.52" y2="92.92"/><line class="cls-2" x1="553.85" y1="24.73" x2="520.55" y2="92.99"/><line class="cls-2" x1="112.49" y1="13.59" x2="145.77" y2="93.96"/><line class="cls-2" x1="145.66" y1="27.04" x2="169.65" y2="95.8"/><line class="cls-2" x1="188.31" y1="26.97" x2="203.06" y2="93.54"/><line class="cls-2" x1="410.62" y1="26.58" x2="394.04" y2="95.41"/><line class="cls-2" x1="453.59" y1="26.51" x2="439.39" y2="93.73"/><line class="cls-2" x1="488.21" y1="26.45" x2="470.42" y2="93.08"/><line class="cls-2" x1="522.82" y1="26.39" x2="499.07" y2="95.23"/><line class="cls-2" x1="226.82" y1="26.9" x2="241.26" y2="95.68"/><line class="cls-2" x1="269.79" y1="26.83" x2="274.68" y2="93.42"/><line class="cls-2" x1="299.33" y1="26.77" x2="310.48" y2="93.36"/><line class="cls-2" x1="334.24" y1="26.71" x2="344.88" y2="93.9"/><line class="cls-2" x1="371.74" y1="26.65" x2="371.86" y2="93.25"/></svg>