<svg id="Capa_1" data-name="Capa 1" xmlns="http://www.w3.org/2000/svg" viewBox="0 0 875.8 536.81"><defs><style>.cls-1,.cls-3,.cls-4{fill:none;}.cls-1,.cls-2,.cls-3,.cls-4{stroke:#333;stroke-linecap:round;stroke-linejoin:round;}.cls-1{stroke-width:9px;}.cls-2{fill:#333;}.cls-2,.cls-3{stroke-width:8px;}.cls-4{stroke-width:5px;}</style></defs><title>but2</title><rect class="cls-1" x="76.88" y="5.69" width="725.42" height="505.08"/><rect class="cls-2" x="4" y="510.78" width="867.8" height="22.03"/><path class="cls-1" d="M72.46,384.25" transform="translate(-66.76 -139.58)"/><path class="cls-3" d="M70.76,650.36c41.71-91.54,46.34-164.7,41.84-216.44-7.87-90.37-47.65-161.66-9.09-237.55,12.59-24.78,29.46-42,41.84-52.79" transform="translate(-66.76 -139.58)"/><path class="cls-3" d="M938.56,650.36c-41.71-91.54-46.34-164.7-41.84-216.44,7.87-90.37,47.65-161.66,9.09-237.55-12.59-24.78-29.46-42-41.84-52.79" transform="translate(-66.76 -139.58)"/><polyline class="cls-4" points="129.42 5.7 129.42 510.78 193.83 510.78 193.83 5.7 263.32 5.7 263.32 510.78 346.37 510.78 346.37 5.7 404 5.7 404 512.48 483.66 512.48 483.66 5.7 546.37 5.7 546.37 512.48 612.48 512.48 612.48 5.7 659.93 5.7 659.93 510.78 726.03 510.78 726.03 5.7"/><polyline class="cls-4" points="76.88 54.85 802.3 54.85 802.3 112.47 76.88 112.47 78.58 181.97 802.3 181.97 802.3 222.64 76.88 222.64 76.88 273.49 802.3 273.49 802.3 324.34 76.88 324.34 76.88 387.05 802.3 387.05 802.3 426.03 78.58 426.03 76.88 463.32 797.22 463.32"/><path class="cls-4" d="M525,665.61" transform="translate(-66.76 -139.58)"/></svg>