<svg id="Capa_1" enable-background="new 0 0 512 512" height="512" viewBox="0 0 512 512" width="512" xmlns="http://www.w3.org/2000/svg"><g><g><g><g><g><path d="m151 437v60c0 8.399-6.599 15-15 15s-15-6.601-15-15v-60c0-8.401 6.599-15 15-15s15 6.599 15 15z" fill="#f3f5f9"/></g></g></g></g><g><g><g><path d="m151 437v60c0 8.399-6.599 15-15 15v-90c8.401 0 15 6.599 15 15z" fill="#e1e6f0"/></g></g></g><g><g><g><path d="m221.8 214.6-22.5 211c-1.8 15-14.7 26.4-29.7 26.4h-67.2c-15 0-27.9-11.4-29.7-26.4l-22.5-211c-2.1-17.701 11.7-33.6 29.7-33.6h26.1v-23.401c-17.999-10.199-30-30.399-30-52.599v-45c0-33.001 27.001-60 60-60s60 26.999 60 60v45c0 22.2-12.001 42.4-30 52.599v23.401h26.1c17.999 0 31.8 15.899 29.7 33.6z" fill="#66b3ff"/></g></g></g><g><g><g><path d="m169.6 452h-33.6v-452c32.999 0 60 26.999 60 60v45c0 22.2-12.001 42.4-30 52.599v23.401h26.1c17.999 0 31.8 15.899 29.7 33.6l-22.5 211c-1.8 15-14.7 26.4-29.7 26.4z" fill="#5990ff"/></g></g></g><g><g><g><g><path d="m211 497c0 8.399-6.599 15-15 15h-120c-8.401 0-15-6.601-15-15 0-8.401 6.599-15 15-15h120c8.401 0 15 6.599 15 15z" fill="#4d5e80"/></g></g></g></g><g><g><g><path d="m211 497c0 8.399-6.599 15-15 15h-60v-30h60c8.401 0 15 6.599 15 15z" fill="#3d4566"/></g></g></g><g><g><g><g><path d="m391 437v60c0 8.399-6.599 15-15 15s-15-6.601-15-15v-60c0-8.401 6.599-15 15-15s15 6.599 15 15z" fill="#f3f5f9"/></g></g></g></g><g><g><g><path d="m391 437v60c0 8.399-6.599 15-15 15v-90c8.401 0 15 6.599 15 15z" fill="#e1e6f0"/></g></g></g><g><g><g><path d="m461.8 214.6-22.5 211c-1.8 15-14.7 26.4-29.7 26.4h-67.2c-15 0-27.9-11.4-29.7-26.4l-22.5-211c-2.1-17.701 11.7-33.6 29.7-33.6h26.1v-23.401c-17.999-10.199-30-30.399-30-52.599v-45c0-33.001 27.001-60 60-60s60 26.999 60 60v45c0 22.2-12.001 42.4-30 52.599v23.401h26.1c17.999 0 31.8 15.899 29.7 33.6z" fill="#ff797d"/></g></g></g><g><g><g><path d="m409.6 452h-33.6v-452c32.999 0 60 26.999 60 60v45c0 22.2-12.001 42.4-30 52.599v23.401h26.1c17.999 0 31.8 15.899 29.7 33.6l-22.5 211c-1.8 15-14.7 26.4-29.7 26.4z" fill="#f25862"/></g></g></g><g><g><g><g><path d="m451 497c0 8.399-6.599 15-15 15h-120c-8.401 0-15-6.601-15-15 0-8.401 6.599-15 15-15h120c8.401 0 15 6.599 15 15z" fill="#4d5e80"/></g></g></g></g><g><g><g><path d="m451 497c0 8.399-6.599 15-15 15h-60v-30h60c8.401 0 15 6.599 15 15z" fill="#3d4566"/></g></g></g></g></svg>