<svg id="_x35_0" enable-background="new 0 0 512 512" height="512" viewBox="0 0 512 512" width="512" xmlns="http://www.w3.org/2000/svg"><g><circle cx="256" cy="256" fill="#e9465e" r="256"/><g><g><g><circle cx="184.754" cy="225.909" fill="#c1b7d3" r="96.097"/><path d="m258.62 164.438c-8.724-10.472-19.628-19.058-32.018-25.059-12.653-6.132-26.85-9.567-41.848-9.567-2.959 0-5.891.132-8.778.395-5.863 6.767-10.8 14.362-14.603 22.587v.005c-5.671 12.253-8.833 25.902-8.833 40.292 0 40.204 24.686 74.639 59.728 88.979 11.222 4.586 23.502 7.118 36.369 7.118 2.959 0 5.885-.132 8.778-.395 3.737-4.312 7.102-8.965 10.033-13.902 5.293-8.921 9.184-18.768 11.376-29.245 1.326-6.373 2.027-12.97 2.027-19.738 0-23.376-8.351-44.812-22.231-61.47z" fill="#f4e6f4"/></g><g><g><path d="m184.754 137.123c23.715 0 46.011 9.235 62.781 26.005s26.005 39.065 26.005 62.781-9.235 46.011-26.005 62.781c-16.769 16.769-39.065 26.005-62.781 26.005s-46.011-9.235-62.781-26.005c-16.769-16.769-26.005-39.065-26.005-62.781s9.235-46.011 26.005-62.781 39.066-26.005 62.781-26.005m0-7.311c-53.073 0-96.097 43.024-96.097 96.097s43.024 96.097 96.097 96.097 96.097-43.024 96.097-96.097-43.024-96.097-96.097-96.097z" fill="#746087"/><path d="m280.776 222.192c-.501-13.514-3.888-26.901-9.92-38.996-17.406-35.356-55.65-56.756-94.888-52.986-2.261 2.608-4.387 5.35-6.355 8.195 85.589-13.703 138.257 89.217 77.438 150.768 2.437-2.466 6.959-.068 10.364-.378 15.883-18.18 24.394-42.482 23.361-66.603z" fill="#c2aacf"/></g><g><g><path d="m144.003 221.145c-.424 0-.854-.066-1.278-.205l-15.773-5.16c-2.157-.706-3.334-3.027-2.629-5.184.706-2.157 3.027-3.335 5.184-2.629l15.773 5.16c2.157.706 3.334 3.027 2.629 5.184-.567 1.734-2.176 2.834-3.906 2.834z" fill="#746087"/></g><g><path d="m184.731 191.482c-2.27 0-4.11-1.84-4.11-4.11v-19.706c0-2.27 1.84-4.11 4.11-4.11s4.11 1.84 4.11 4.11v19.706c0 2.27-1.841 4.11-4.11 4.11z" fill="#c2aacf"/></g><g><path d="m225.484 221.078c-1.751 0-3.374-1.129-3.922-2.889-.675-2.167.535-4.471 2.702-5.146l15.839-4.932c2.166-.674 4.471.535 5.146 2.702s-.535 4.471-2.702 5.146l-15.839 4.932c-.407.127-.819.187-1.224.187z" fill="#c2aacf"/></g><g><path d="m216.699 278.735c-1.296 0-2.572-.611-3.371-1.754l-6.816-9.743c-1.301-1.86-.848-4.422 1.012-5.723s4.423-.848 5.723 1.012l6.816 9.743c1.301 1.86.848 4.422-1.012 5.723-.717.501-1.539.742-2.352.742z" fill="#c2aacf"/></g><g><path d="m152.536 278.55c-.864 0-1.736-.272-2.478-.834-1.81-1.37-2.165-3.948-.795-5.757l7.188-9.492c1.37-1.81 3.948-2.166 5.757-.795 1.81 1.37 2.165 3.948.795 5.757l-7.188 9.492c-.808 1.068-2.036 1.629-3.279 1.629z" fill="#746087"/></g></g></g><g><path d="m172.14 321.183c-29.722-3.896-55.169-21.376-69.91-46.007l45.152-2.088c3.885-.18 7.444 2.163 8.816 5.802z" fill="#3e4e60"/><path d="m125.282 216.667-34.559 29.139c-1.353-6.422-2.066-13.074-2.066-19.897 0-23.316 8.307-44.698 22.127-61.339l17.027 41.85c1.466 3.602.445 7.739-2.529 10.247z" fill="#3e4e60"/><g><path d="m280.851 225.909c0 6.767-.701 13.365-2.027 19.738l-34.612-29.081c-2.978-2.502-4.006-6.638-2.547-10.243l16.956-41.884c13.879 16.657 22.23 38.093 22.23 61.47z" fill="#3e4e60"/><path d="m280.851 225.909c0 6.767-.701 13.365-2.027 19.738l-34.612-29.081c-2.978-2.502-4.006-6.638-2.547-10.243l16.956-41.884c13.879 16.657 22.23 38.093 22.23 61.47z" fill="#3f6c8e"/></g><g><path d="m179.477 189.087-32.193 23.39c-3.147 2.286-4.464 6.339-3.262 10.038l12.297 37.845c1.202 3.699 4.649 6.204 8.539 6.204h39.793c3.89 0 7.337-2.505 8.539-6.204l12.297-37.845c1.202-3.699-.115-7.752-3.262-10.038l-32.193-23.39c-3.147-2.286-7.409-2.286-10.555 0z" fill="#3e4e60"/><path d="m225.484 222.517-12.296 37.843c-1.2 3.699-4.647 6.203-8.537 6.203h-17.957c-17.332-14.625-29.42-35.273-33.031-58.72l25.815-18.757c3.145-2.285 7.409-2.285 10.554 0l32.193 23.393c3.144 2.284 4.465 6.339 3.259 10.038z" fill="#3f6c8e"/></g><g><path d="m267.448 274.891c-2.932 4.937-6.296 9.589-10.033 13.902-14.954 17.266-35.952 29.146-59.712 32.346l14.565-39.07 1.222-3.276c1.359-3.644 4.91-5.998 8.796-5.832z" fill="#3e4e60"/><path d="m267.448 274.891c-2.932 4.937-6.296 9.589-10.033 13.902-2.893.263-5.819.395-8.778.395-12.866 0-25.146-2.532-36.369-7.118l1.222-3.277c1.359-3.644 4.91-5.995 8.795-5.83z" fill="#3f6c8e"/></g><g><path d="m226.602 139.379-36.571 26.572c-3.147 2.286-7.408 2.287-10.555 0l-18.104-13.153v-.005l-18.466-13.414c10.154-4.921 21.305-8.104 33.07-9.173 2.888-.263 5.819-.395 8.778-.395 14.998.001 29.196 3.436 41.848 9.568z" fill="#3e4e60"/><path d="m226.602 139.379-36.571 26.571c-3.145 2.285-7.409 2.291-10.554 0l-18.105-13.151v-.005c3.803-8.225 8.74-15.82 14.603-22.587 2.888-.263 5.819-.395 8.778-.395 14.999 0 29.197 3.435 41.849 9.567z" fill="#3f6c8e"/></g></g></g><path d="m432.257 116.912-242.533 9.369-1.6.002c-21.508.039-42.834 5.57-61.646 16.032-6.498 3.303-12.148 9.291-17.193 14.471-5.201 5.275-9.495 11.32-12.761 17.964-5.315 10.301-10.158 21.346-11.696 32.908-2.061 13.243-.267 30.149 3.992 43.726 0 0 2.066 6.718 2.066 6.718 6.908 20.5 21.857 37.866 39.201 50.453 32.894 23.816 193.631 142.821 229.454 169.11 1.543 1.142 3.738.825 4.894-.738 1.147-1.556.817-3.747-.738-4.895l-86.573-63.869 9.768-51.889 87.482 41.093c1.71.814 3.832.088 4.656-1.68.821-1.75.069-3.834-1.68-4.656l-89.121-41.863 8.703-46.227 63.524 22.364c1.775.638 3.825-.298 4.464-2.14.642-1.823-.316-3.821-2.14-4.464l-64.538-22.721 8.411-44.678 54.156 12.873c1.831.45 3.775-.701 4.215-2.596.447-1.881-.715-3.768-2.596-4.215l-54.478-12.949 8.232-43.727 45.01 5.534c1.881.243 3.674-1.12 3.9-3.047.236-1.918-1.128-3.665-3.047-3.9l-44.566-5.479 6.707-35.629 46.962 1.378c1.921.061 3.547-1.462 3.601-3.396.057-1.932-1.463-3.544-3.396-3.601l-45.856-1.346 4.393-23.333 102.636-3.964c4.591-.278 4.366-7.077-.269-6.993zm-244.126 16.371 1.667-.002 33.173-1.281-3.531 16.093-56.606-1.661 2.51-10.934c7.49-1.459 15.125-2.208 22.787-2.215zm-88.642 127.23c-.12-.057-.245-.088-.368-.129-3.449-9.464-6.432-19.778-7.493-29.718l41.347 14.557-6.428 28.001zm-8.439-37.926c-.275-9.502.421-13.993 2.382-21.965l47.206 11.221-6.086 26.512-43.481-15.308c-.005-.153-.017-.307-.021-.46zm48.57 24.974 53.833 18.952-7.587 34.574-52.835-24.818zm1.577-6.867 6.251-27.232 54.79 13.023-7.272 33.139zm7.817-34.055 5.916-25.773 55.812 6.862-7.005 31.919zm7.49-32.633 4.733-20.619 56.676 1.663-5.664 25.81zm-.804-27.783-20.424-.6c7.205-3.542 14.743-6.356 22.487-8.391zm-41.431 15.477c2.624-2.609 6.889-7.239 9.818-9.403l30.017.881-4.584 19.97-40.765-5.012c1.687-2.261 3.521-4.415 5.514-6.436zm-15.255 23.869c1.197-2.388 4.213-8.776 5.525-10.981.231.08.472.14.724.171l42.683 5.248-5.742 25.013-46.714-11.104c1.015-2.841 2.19-5.627 3.524-8.347zm5.227 84.91 20.704 9.725-2.9 12.635c-6.896-6.617-12.906-14.162-17.804-22.36zm29.895 32.366c-2.1-1.489-4.139-3.064-6.126-4.704l3.418-14.891 52.899 24.848-5.969 27.202c-3.797-2.775-41.585-30.788-44.222-32.455zm136.733 100.705-86.343-63.699 6.298-28.701 89.523 42.051zm10.816-57.454-89.322-41.957 7.743-35.284 90.146 31.736zm9.877-52.465-89.944-31.665 7.431-33.862 90.786 21.58zm9.57-50.835-90.582-21.531 7.172-32.68 91.499 11.249zm9.386-49.855-91.289-11.224 5.806-26.459 92.069 2.701zm7.896-41.944-91.853-2.695 3.639-16.581 92.516-3.573z" fill="#fff"/><g><g><path d="m496.44 167.92h-57.49c-10.04 0-18.74 5.83-22.89 14.28-1.68 3.42-2.6 7.34-2.6 11.2v264.46c-7.46 5.83-15.26 11.25-23.35 16.24-9.13 5.63-18.64 10.7-28.49 15.16v-295.86c0-42.65 34.68-77.33 77.33-77.33h31.46c5.66 8.66 10.81 17.69 15.41 27.04 3.96 8.04 7.51 16.32 10.62 24.81z" fill="#a583bb"/></g><g><path d="m485.82 143.11h-68.84c-.78 0-1.55.03-2.31.11-12.08 1.021-21.89 10.07-24.08 21.771-.32 1.62-.48 3.29-.48 5v304.109c-9.13 5.63-18.64 10.7-28.49 15.16v-295.86c0-42.65 34.68-77.33 77.33-77.33h31.46c5.66 8.66 10.81 17.69 15.41 27.04z" fill="#c2aacf"/></g><path d="m390.11 252.54v221.56c-9.13 5.63-18.64 10.7-28.49 15.16v-236.72c0-7.87 6.37-14.24 14.24-14.24 7.86-.01 14.25 6.37 14.25 14.24z" fill="#decee5"/></g></g><g><g><g><path d="m137.669 101.507c1.203 1.001 2.99.838 3.992-.366 23.089-27.746 64.447-31.534 92.193-8.445 1.203 1.001 2.99.838 3.992-.366 1.001-1.203.837-2.99-.366-3.992-30.148-25.089-75.087-20.972-100.176 9.176-1.002 1.204-.838 2.992.365 3.993z" fill="#ff9fb4"/></g><g><path d="m105.957 126.75c.325.271.717.472 1.156.577 1.523.362 3.051-.579 3.413-2.102 10.44-43.929 54.673-71.174 98.602-60.734 1.523.362 3.051-.579 3.413-2.102s-.579-3.051-2.102-3.413c-46.97-11.163-94.264 17.968-105.427 64.938-.259 1.084.143 2.169.945 2.836z" fill="#ff9fb4"/></g></g><g fill="#ff9fb4"><path d="m130.755 336.583c1.362.571 2.055 2.096 1.589 3.498l-10.366 29.183c-.519 1.562-2.257 2.351-3.775 1.715-1.362-.571-2.055-2.096-1.589-3.498l10.366-29.183c.519-1.561 2.257-2.351 3.775-1.715z"/><path d="m105.745 336.359c1.003 1.084 1.002 2.759-.003 3.842l-21.523 22.267c-1.119 1.206-3.028 1.205-4.146-.003-1.003-1.084-1.002-2.759.003-3.842l21.523-22.267c1.119-1.206 3.028-1.204 4.146.003z"/></g></g></g></svg>