<svg id="_x35_0" enable-background="new 0 0 512 512" height="512" viewBox="0 0 512 512" width="512" xmlns="http://www.w3.org/2000/svg"><g><g><circle cx="256" cy="256" fill="#4fcae8" r="256"/><g><path d="m274.705 466.737c-2.56 0-4.741-1.954-4.974-4.553-.247-2.75 1.782-5.181 4.532-5.427 9.885-.888 19.765-2.518 29.364-4.844 2.683-.647 5.387.998 6.037 3.682s-.998 5.387-3.682 6.037c-10.079 2.442-20.45 4.152-30.825 5.084-.151.014-.303.021-.452.021zm-45.682-.909c-.216 0-.434-.015-.653-.043-10.322-1.347-20.616-3.476-30.597-6.326-2.655-.759-4.193-3.525-3.434-6.181s3.526-4.191 6.181-3.435c9.505 2.715 19.311 4.742 29.144 6.025 2.738.357 4.668 2.866 4.311 5.604-.329 2.52-2.478 4.356-4.952 4.356zm118.743-19.702c-1.839 0-3.608-1.018-4.482-2.776-1.228-2.474-.219-5.475 2.254-6.702 8.863-4.402 17.481-9.511 25.616-15.183 2.265-1.578 5.381-1.024 6.961 1.242 1.579 2.265 1.023 5.381-1.242 6.961-8.537 5.953-17.583 11.314-26.886 15.936-.716.354-1.474.522-2.221.522zm-190.9-3.848c-.812 0-1.636-.198-2.398-.616-9.104-4.989-17.92-10.705-26.206-16.989-2.2-1.668-2.631-4.805-.962-7.005 1.668-2.2 4.806-2.632 7.005-.962 7.895 5.987 16.295 11.434 24.968 16.187 2.422 1.327 3.309 4.366 1.982 6.788-.909 1.659-2.622 2.597-4.389 2.597zm251.533-41.825c-1.206 0-2.416-.434-3.375-1.312-2.037-1.865-2.177-5.028-.312-7.064 6.69-7.31 12.893-15.173 18.434-23.372 1.544-2.287 4.652-2.891 6.942-1.343 2.288 1.546 2.889 4.654 1.343 6.942-5.813 8.604-12.322 16.854-19.343 24.524-.985 1.078-2.335 1.625-3.689 1.625zm-310.27-6.222c-1.421 0-2.833-.603-3.822-1.773-6.715-7.95-12.891-16.459-18.354-25.29-1.453-2.349-.727-5.43 1.621-6.883 2.35-1.452 5.43-.727 6.883 1.621 5.206 8.415 11.091 16.522 17.49 24.099 1.782 2.109 1.516 5.265-.593 7.046-.939.793-2.085 1.18-3.225 1.18zm350.388-58.181c-.604 0-1.219-.11-1.816-.343-2.572-1.004-3.845-3.902-2.841-6.476 3.598-9.223 6.532-18.796 8.724-28.453.61-2.694 3.286-4.383 5.982-3.77 2.692.611 4.381 3.289 3.77 5.982-2.3 10.139-5.382 20.19-9.159 29.875-.772 1.977-2.66 3.185-4.66 3.185zm-387.903-7.819c-2.075 0-4.015-1.302-4.728-3.374-3.38-9.824-6.051-19.992-7.939-30.222-.501-2.715 1.294-5.323 4.009-5.824 2.712-.498 5.324 1.293 5.825 4.01 1.798 9.742 4.342 19.427 7.561 28.782.898 2.611-.49 5.457-3.102 6.354-.538.187-1.087.274-1.626.274zm401.958-66.759c-2.762 0-5-2.238-5-5l.001-.503c0-9.913-.73-19.901-2.171-29.658-.403-2.732 1.484-5.273 4.216-5.677 2.746-.411 5.273 1.485 5.677 4.216 1.512 10.239 2.278 20.72 2.278 31.15l-.001.472c0 2.761-2.238 5-5 5zm-412.995-8.326c-.063 0-.126-.001-.19-.004-2.76-.103-4.913-2.424-4.81-5.184.39-10.416 1.552-20.862 3.455-31.046.507-2.715 3.122-4.5 5.833-3.997 2.714.507 4.504 3.118 3.997 5.833-1.812 9.703-2.92 19.657-3.292 29.585-.101 2.696-2.319 4.813-4.993 4.813zm399.107-66.769c-2.004 0-3.896-1.213-4.663-3.194-3.577-9.23-7.881-18.277-12.792-26.888-1.368-2.399-.533-5.453 1.865-6.82 2.4-1.37 5.452-.533 6.82 1.865 5.156 9.04 9.675 18.538 13.431 28.229.998 2.575-.28 5.471-2.855 6.469-.594.231-1.206.339-1.806.339zm-382.396-7.258c-.662 0-1.335-.132-1.981-.411-2.535-1.096-3.701-4.039-2.605-6.573 4.118-9.528 8.989-18.837 14.478-27.668 1.458-2.345 4.542-3.062 6.886-1.607 2.346 1.458 3.065 4.541 1.607 6.887-5.229 8.412-9.869 17.28-13.792 26.355-.817 1.888-2.659 3.017-4.593 3.017zm342.392-57.267c-1.356 0-2.709-.549-3.695-1.631-6.677-7.321-13.951-14.207-21.62-20.466-2.14-1.746-2.459-4.896-.713-7.035 1.745-2.14 4.896-2.46 7.035-.713 8.048 6.568 15.681 13.793 22.687 21.476 1.86 2.04 1.715 5.203-.325 7.063-.96.874-2.166 1.306-3.369 1.306zm-299.997-5.664c-1.265 0-2.531-.478-3.505-1.435-1.969-1.936-1.996-5.102-.06-7.071 7.291-7.415 15.191-14.351 23.479-20.611 2.204-1.663 5.339-1.227 7.003.977s1.228 5.339-.976 7.004c-7.899 5.966-15.427 12.574-22.376 19.643-.977.993-2.271 1.493-3.565 1.493zm239.465-40.117c-.751 0-1.513-.17-2.229-.527-8.864-4.426-18.131-8.222-27.541-11.281-2.626-.854-4.062-3.675-3.209-6.301s3.677-4.06 6.301-3.209c9.881 3.212 19.609 7.197 28.916 11.844 2.471 1.233 3.474 4.236 2.24 6.707-.876 1.754-2.643 2.767-4.478 2.767zm-177.234-3.361c-1.904 0-3.723-1.093-4.558-2.939-1.139-2.516-.022-5.479 2.494-6.617 9.485-4.292 19.366-7.904 29.366-10.737 2.657-.752 5.42.791 6.173 3.447.753 2.657-.791 5.421-3.448 6.174-9.524 2.698-18.935 6.139-27.969 10.228-.668.301-1.368.444-2.058.444zm104.249-17.406c-.153 0-.308-.007-.464-.021-9.831-.903-19.925-1.089-29.768-.557-2.76.147-5.113-1.966-5.263-4.723-.149-2.758 1.965-5.114 4.723-5.263 10.324-.559 20.911-.364 31.224.584 2.75.253 4.773 2.688 4.521 5.438-.239 2.593-2.418 4.542-4.973 4.542z" fill="#cde6f6"/></g></g><g><g><path d="m103.056 300.694c0 17.304 6.905 33.909 19.112 46.116l60.871 60.871c12.947 12.988 29.799 19.77 46.815 20.345.781.041 1.603.041 2.384.041 17.797 0 35.635-6.782 49.24-20.386l90.382-90.382c7.768-7.809 7.768-20.427 0-28.196l-7.48-7.48c-7.809-7.768-20.428-7.768-28.196 0l41.019-41.019c7.768-7.768 7.768-20.386 0-28.196l-7.48-7.48c-7.809-7.768-20.427-7.768-28.196 0l22.236-22.236c7.768-7.768 7.768-20.427 0-28.196l-7.48-7.48c-7.768-7.768-20.386-7.768-28.196 0l-20.099 20.099c7.768-7.768 7.768-20.386 0-28.196l-7.48-7.48c-7.768-7.768-20.386-7.768-28.196 0l-92.848 92.848v-42.499c0-16.687-13.481-30.169-30.169-30.169h-15.989c-16.687 0-30.168 13.481-30.168 30.169v118.865z" fill="#f5b890"/><g><g><path d="m229.948 230.208 1.516-1.516 69.043-69.044c7.785-7.785 7.785-20.406 0-28.191h.001l7.479 7.479c7.785 7.785 7.785 20.407 0 28.191l-78.039 78.039c-.001-.001-4.131-10.828 0-14.958z" fill="#d48d77"/></g><g><path d="m299.145 303.692 1.516-1.516 69.044-69.044c7.785-7.785 7.785-20.406 0-28.191l7.479 7.479c7.785 7.785 7.785 20.407.001 28.191l-78.04 78.039c-.001-.001-4.131-10.827 0-14.958z" fill="#d48d77"/></g><g><path d="m273.395 258.102 1.516-1.516 81.375-81.376c7.785-7.785 7.785-20.406 0-28.191h.001l7.478 7.479c7.785 7.785 7.785 20.407.001 28.191l-90.371 90.371c-.001-.001-4.131-10.828 0-14.958z" fill="#d48d77"/></g><g fill="#d48d77"><path d="m179.477 181.777v42.52l-16.134 16.133v-58.776c0-16.596-13.453-30.05-30.05-30.05h16.01c16.664 0 30.174 13.509 30.174 30.173z"/><path d="m183.172 407.681c12.603 12.643 28.91 19.357 45.462 20.238.193.011.385.037.579.046.258.012.515.053.773.061l.019-.06c18.598.64 37.399-6.101 51.599-20.3l90.37-90.371c7.785-7.785 7.785-20.407 0-28.192l-7.479-7.479c7.785 7.785 7.785 20.406 0 28.191l-81.376 81.376c-.125.132-.251.264-.377.395-14.621 15.205-42.73 21.033-63.155 13.453-11.166-4.144-23.455-4.041-34.04 1.417z"/></g></g></g><g><g><g><path d="m361.914 223.566-28.886 98.65c-2.892 9.887-11.968 16.676-22.266 16.676h-107.06c-10.298 0-19.362-6.789-22.254-16.676l-28.898-98.65c-.399-1.367-.593-2.735-.593-4.078 0-7.672 6.232-14.364 14.413-14.364 8.592 0 15.562-6.97 15.562-15.562v-27.555c0-7.503 2.977-14.703 8.289-20.015l20.766-20.766c6.474-6.474 15.248-10.105 24.396-10.105h43.71c9.148 0 17.91 3.63 24.384 10.105l20.766 20.766c5.313 5.312 8.289 12.513 8.289 20.015v27.555c0 4.296 1.742 8.18 4.562 11 2.807 2.82 6.704 4.562 11 4.562 9.609-.001 16.519 9.221 13.82 18.442z" fill="#e9465e"/><path d="m361.914 223.566-28.886 98.65c-2.892 9.887-11.968 16.676-22.266 16.676h-55.182v-227.77h23.513c9.148 0 17.91 3.63 24.384 10.105l20.766 20.766c5.313 5.312 8.289 12.513 8.289 20.015v27.555c0 4.296 1.742 8.18 4.562 11 2.807 2.82 6.704 4.562 11 4.562 9.609-.002 16.519 9.22 13.82 18.441z" fill="#ee6781"/></g><g><g><g><path d="m307.713 297.71c0 2.348-1.9 4.235-4.235 4.235h-92.49c-2.336 0-4.235-1.888-4.235-4.235 0-2.336 1.9-4.235 4.235-4.235h92.49c2.335 0 4.235 1.9 4.235 4.235z" fill="#c0405c"/></g><g><path d="m307.713 317.096c0 2.336-1.9 4.235-4.235 4.235h-92.49c-2.336 0-4.235-1.9-4.235-4.235 0-2.348 1.9-4.235 4.235-4.235h92.49c2.335 0 4.235 1.888 4.235 4.235z" fill="#c0405c"/></g></g><g fill="#e9465e"><path d="m307.713 297.71c0 2.348-1.9 4.235-4.235 4.235h-47.898v-8.471h47.897c2.336.001 4.236 1.901 4.236 4.236z"/><path d="m307.713 317.096c0 2.336-1.9 4.235-4.235 4.235h-47.898v-8.471h47.897c2.336.001 4.236 1.889 4.236 4.236z"/></g></g></g><g><g><g><path d="m272.328 91.977v19.144h-33.496v-19.144c0-5.555 4.502-10.044 10.044-10.044h13.42c5.543-.001 10.032 4.489 10.032 10.044z" fill="#334353"/><path d="m272.328 91.977v.835c0 5.663-4.586 10.262-10.25 10.262h-12.985c-5.664 0-10.262-4.598-10.262-10.262v-.835c0-5.555 4.502-10.044 10.044-10.044h13.42c5.544-.001 10.033 4.489 10.033 10.044z" fill="#3e4e60"/></g><g><path d="m334.868 131.378-10.625 10.613-20.766-20.766 4.562-4.562 6.051-6.063c3.388-3.376 8.858-3.376 12.246 0l8.302 8.301.23.23c3.376 3.389 3.376 8.871 0 12.247z" fill="#334353"/><path d="m334.638 118.902c-.532 2.795-1.876 5.458-4.042 7.624-1.755 1.755-4.054 2.626-6.353 2.626s-4.598-.871-6.341-2.626l-9.862-9.863 6.051-6.063c3.388-3.376 8.858-3.376 12.246 0z" fill="#3e4e60"/></g><g><path d="m210.987 121.225-20.766 20.766-10.613-10.613c-3.388-3.376-3.388-8.858 0-12.246l8.531-8.531c3.376-3.376 8.858-3.376 12.235 0l6.051 6.063z" fill="#334353"/><path d="m206.425 116.663-9.851 9.863c-1.755 1.755-4.054 2.626-6.353 2.626s-4.598-.871-6.353-2.626c-2.154-2.154-3.509-4.816-4.042-7.612l8.314-8.314c3.376-3.376 8.858-3.376 12.235 0z" fill="#3e4e60"/></g></g><path d="m290.379 359.284h-66.29c-11.26 0-20.389-9.128-20.389-20.389h107.068c-.001 11.26-9.129 20.389-20.389 20.389z" fill="#334353"/></g><g><g><path d="m324.848 213.51c0 37.344-30.277 67.61-67.61 67.61-.557 0-1.113-.012-1.658-.024-36.582-.871-65.952-30.798-65.952-67.586 0-36.776 29.37-66.702 65.952-67.586.545-.012 1.101-.024 1.658-.024 37.332 0 67.61 30.277 67.61 67.61z" fill="#334353"/><path d="m324.848 213.51c0 37.344-30.277 67.61-67.61 67.61-.557 0-1.113-.012-1.658-.024v-135.172c.545-.012 1.101-.024 1.658-.024 37.332 0 67.61 30.277 67.61 67.61z" fill="#3e4e60"/></g><g><path d="m311.9 194.813v37.393c0 5.373-4.356 9.729-9.729 9.729h-89.864c-5.385 0-9.741-4.356-9.741-9.729v-37.393c0-5.373 4.356-9.729 9.741-9.729h89.864c5.372 0 9.729 4.356 9.729 9.729z" fill="#3e4e60"/><path d="m311.9 194.813v37.393c0 5.373-4.356 9.729-9.729 9.729h-46.59v-56.852h46.59c5.372.001 9.729 4.357 9.729 9.73z" fill="#3f5d77"/></g><g fill="#fff"><path d="m204.369 220.846c-1.2-1.681-1.799-4.131-1.799-7.348 0-3.199.6-5.639 1.799-7.32 1.2-1.681 2.935-2.522 5.207-2.522s4.008.841 5.207 2.522 1.799 4.122 1.799 7.32c0 3.199-.6 5.644-1.799 7.334-1.2 1.69-2.936 2.536-5.207 2.536-2.272 0-4.007-.841-5.207-2.522zm7.907-1.936c.563-1.136.845-2.94.845-5.412 0-2.49-.282-4.294-.845-5.412-.564-1.118-1.463-1.677-2.699-1.677s-2.136.564-2.699 1.69c-.564 1.127-.845 2.927-.845 5.398 0 2.472.282 4.276.845 5.412s1.463 1.704 2.699 1.704c1.235.001 2.135-.567 2.699-1.703z"/><path d="m220.727 220.846c-1.199-1.681-1.799-4.131-1.799-7.348 0-3.199.6-5.639 1.799-7.32 1.2-1.681 2.935-2.522 5.207-2.522s4.008.841 5.207 2.522c1.2 1.681 1.799 4.122 1.799 7.32 0 3.199-.6 5.644-1.799 7.334s-2.935 2.536-5.207 2.536c-2.271 0-4.007-.841-5.207-2.522zm7.907-1.936c.563-1.136.845-2.94.845-5.412 0-2.49-.282-4.294-.845-5.412-.564-1.118-1.464-1.677-2.699-1.677-1.236 0-2.136.564-2.699 1.69-.564 1.127-.845 2.927-.845 5.398 0 2.472.282 4.276.845 5.412s1.463 1.704 2.699 1.704c1.236.001 2.136-.567 2.699-1.703z"/><path d="m236.05 212.994c-.382-.391-.572-.877-.572-1.459s.191-1.063.572-1.445c.382-.382.863-.572 1.445-.572s1.063.191 1.445.572c.382.382.572.864.572 1.445 0 .582-.191 1.068-.572 1.459-.382.391-.864.586-1.445.586-.582 0-1.064-.195-1.445-.586zm0 9.706c-.382-.391-.572-.876-.572-1.459 0-.581.191-1.067.572-1.459.382-.391.863-.586 1.445-.586s1.063.196 1.445.586c.382.391.572.877.572 1.459s-.191 1.068-.572 1.459c-.382.391-.864.586-1.445.586-.582 0-1.064-.195-1.445-.586z"/><path d="m243.847 220.846c-1.2-1.681-1.799-4.131-1.799-7.348 0-3.199.6-5.639 1.799-7.32s2.935-2.522 5.207-2.522 4.008.841 5.207 2.522 1.799 4.122 1.799 7.32c0 3.199-.6 5.644-1.799 7.334-1.2 1.69-2.936 2.536-5.207 2.536-2.272 0-4.008-.841-5.207-2.522zm7.906-1.936c.563-1.136.845-2.94.845-5.412 0-2.49-.282-4.294-.845-5.412-.564-1.118-1.463-1.677-2.699-1.677s-2.136.564-2.699 1.69c-.564 1.127-.845 2.927-.845 5.398 0 2.472.281 4.276.845 5.412.563 1.136 1.463 1.704 2.699 1.704 1.236.001 2.136-.567 2.699-1.703z"/><path d="m260.205 220.846c-1.199-1.681-1.799-4.131-1.799-7.348 0-3.199.6-5.639 1.799-7.32 1.2-1.681 2.935-2.522 5.207-2.522s4.008.841 5.207 2.522c1.2 1.681 1.799 4.122 1.799 7.32 0 3.199-.6 5.644-1.799 7.334s-2.935 2.536-5.207 2.536-4.007-.841-5.207-2.522zm7.907-1.936c.563-1.136.845-2.94.845-5.412 0-2.49-.282-4.294-.845-5.412-.564-1.118-1.464-1.677-2.699-1.677-1.236 0-2.136.564-2.699 1.69-.564 1.127-.845 2.927-.845 5.398 0 2.472.282 4.276.845 5.412s1.463 1.704 2.699 1.704c1.235.001 2.135-.567 2.699-1.703z"/><path d="m275.527 212.994c-.382-.391-.572-.877-.572-1.459s.191-1.063.572-1.445c.382-.382.863-.572 1.445-.572s1.063.191 1.445.572c.382.382.572.864.572 1.445 0 .582-.191 1.068-.572 1.459-.382.391-.864.586-1.445.586s-1.063-.195-1.445-.586zm0 9.706c-.382-.391-.572-.876-.572-1.459 0-.581.191-1.067.572-1.459.382-.391.863-.586 1.445-.586s1.063.196 1.445.586c.382.391.572.877.572 1.459s-.191 1.068-.572 1.459c-.382.391-.864.586-1.445.586s-1.063-.195-1.445-.586z"/><path d="m283.325 220.846c-1.199-1.681-1.799-4.131-1.799-7.348 0-3.199.6-5.639 1.799-7.32 1.2-1.681 2.935-2.522 5.207-2.522s4.008.841 5.207 2.522c1.2 1.681 1.799 4.122 1.799 7.32 0 3.199-.6 5.644-1.799 7.334s-2.935 2.536-5.207 2.536-4.007-.841-5.207-2.522zm7.907-1.936c.563-1.136.845-2.94.845-5.412 0-2.49-.282-4.294-.845-5.412-.564-1.118-1.464-1.677-2.699-1.677-1.236 0-2.136.564-2.699 1.69-.564 1.127-.845 2.927-.845 5.398 0 2.472.282 4.276.845 5.412s1.463 1.704 2.699 1.704c1.235.001 2.135-.567 2.699-1.703z"/><path d="m299.683 220.846c-1.199-1.681-1.799-4.131-1.799-7.348 0-3.199.6-5.639 1.799-7.32 1.2-1.681 2.935-2.522 5.207-2.522s4.008.841 5.207 2.522c1.2 1.681 1.799 4.122 1.799 7.32 0 3.199-.6 5.644-1.799 7.334s-2.935 2.536-5.207 2.536-4.007-.841-5.207-2.522zm7.907-1.936c.563-1.136.845-2.94.845-5.412 0-2.49-.282-4.294-.845-5.412-.564-1.118-1.464-1.677-2.699-1.677-1.236 0-2.136.564-2.699 1.69-.564 1.127-.845 2.927-.845 5.398 0 2.472.282 4.276.845 5.412s1.463 1.704 2.699 1.704c1.235.001 2.135-.567 2.699-1.703z"/></g></g></g><g><g><path d="m200.386 166.155v9.615c0 16.293-12.251 30-28.444 31.833l-17.397 1.983c-5.85 0-11.171-2.385-15.013-6.226-3.841-3.841-6.226-9.163-6.226-15.038v-36.703h52.544c7.406 0 13.506 5.523 14.41 12.703.076.603.126 1.205.126 1.833z" fill="#d48d77"/><path d="m200.26 164.322c-1.305 15.038-13.054 27.289-28.318 29.021l-17.397 1.983c-5.85 0-11.171-2.385-15.013-6.226-3.841-3.841-6.573-9.163-6.573-15.038v-22.444h52.891c3.791 0 7.23 1.456 9.816 3.841 2.46 2.261 4.143 5.348 4.594 8.863z" fill="#f5b890"/><path d="m195.662 155.463c-1.829 11.044-10.82 19.802-22.286 21.111l-13.859 1.578c-4.644 0-8.893-1.883-11.95-4.94-.358-.358-.699-.735-1.022-1.121-2.465-2.94-3.953-6.732-3.953-10.856v-9.619h43.254c3.792.001 7.234 1.462 9.816 3.847z" fill="#ffd4c7"/></g><path d="m153.869 151.617c0 9.377-3.048 17.373-7.324 20.475-2.465-2.94-3.953-6.732-3.953-10.856v-9.619z" fill="#faefdc"/></g><g><g><g><path d="m365.6 154.471-45.304 35.423c-6.569 5.169-16.097 4.016-21.274-2.61l-6.873-8.829-5.177-6.626c-5.169-6.569-4.016-16.098 2.585-21.242l48.682-38.064c.84-.638 1.721-1.194 2.674-1.645 7.326-3.678 16.544-.771 20.285 7.01l8.721 18.031c3.09 6.421 1.312 14.15-4.319 18.552z" fill="#d48d77"/><path d="m344.727 157.723-22.62 17.736c-8.878 6.938-20.546 7.733-29.959 2.996l-5.177-6.626c-5.169-6.569-4.016-16.098 2.585-21.242l48.682-38.064c.84-.638 1.721-1.194 2.674-1.645l9.951 20.647c4.354 9.06 1.828 19.996-6.136 26.198z" fill="#f5b890"/></g><g><path d="m408.105 311.245-33.59 26.238c-6.569 5.169-16.097 4.016-21.274-2.61l-6.873-8.829-5.177-6.626c-5.169-6.569-4.016-16.098 2.585-21.242l36.968-28.878c.84-.638 1.721-1.194 2.674-1.645 7.326-3.678 16.544-.771 20.285 7.01l8.721 18.031c3.089 6.421 1.312 14.15-4.319 18.551z" fill="#d48d77"/><path d="m387.232 314.498-10.905 8.551c-8.878 6.938-20.546 7.733-29.959 2.996l-5.177-6.626c-5.169-6.569-4.016-16.098 2.585-21.242l36.968-28.878c.84-.638 1.721-1.194 2.674-1.645l9.951 20.647c4.353 9.058 1.827 19.994-6.137 26.197z" fill="#f5b890"/></g><g><path d="m407.686 248.246-45.304 35.423c-6.569 5.169-16.097 4.016-21.274-2.61l-6.873-8.829-5.177-6.626c-5.169-6.569-4.016-16.098 2.585-21.242l48.682-38.064c.84-.638 1.721-1.194 2.674-1.645 7.326-3.678 16.544-.771 20.285 7.01l8.721 18.031c3.09 6.421 1.312 14.15-4.319 18.552z" fill="#d48d77"/><path d="m386.813 251.498-22.62 17.736c-8.878 6.938-20.546 7.733-29.959 2.996l-5.177-6.626c-5.169-6.569-4.016-16.098 2.585-21.242l48.682-38.064c.84-.638 1.721-1.194 2.674-1.645l9.951 20.647c4.354 9.06 1.829 19.996-6.136 26.198z" fill="#f5b890"/></g><g><path d="m405.032 186.98-68.189 53.317c-6.569 5.169-16.097 4.016-21.274-2.61l-6.873-8.829-5.177-6.626c-5.169-6.569-4.016-16.098 2.585-21.242l71.567-55.958c.84-.638 1.721-1.194 2.674-1.645 7.326-3.678 16.544-.771 20.285 7.01l8.721 18.031c3.089 6.421 1.312 14.15-4.319 18.552z" fill="#d48d77"/><path d="m384.159 190.233-45.504 35.63c-8.878 6.938-20.546 7.733-29.959 2.996l-5.177-6.626c-5.169-6.569-4.016-16.098 2.585-21.242l71.567-55.958c.84-.638 1.721-1.194 2.674-1.645l9.951 20.647c4.353 9.059 1.827 19.995-6.137 26.198z" fill="#f5b890"/></g></g><g><g><path d="m329.445 174.351-7.638 5.949c-3.996 3.112-8.885 4.319-13.553 3.739-2.793-.347-5.511-1.343-7.906-2.943-1.606-1.056-3.069-2.393-4.319-3.999-6.236-8.006-4.795-19.548 3.203-25.779l7.638-5.949c.976-.76 2.077-1.243 3.214-1.447 2.669-.511 5.519.462 7.304 2.754l13.364 17.157c.859 1.103 1.354 2.366 1.526 3.652.178 1.396-.045 2.831-.638 4.111-.481 1.045-1.219 1.995-2.195 2.755z" fill="#f3c3b1"/><path d="m322.103 175.457c-6.43 5.02-14.314 6.832-21.754 5.639-1.606-1.056-3.069-2.393-4.319-3.999-6.236-8.006-4.795-19.548 3.203-25.779l7.638-5.949c3.261-2.54 7.973-1.961 10.518 1.307l13.364 17.157c.859 1.103 1.354 2.366 1.526 3.652z" fill="#ffd4c7"/><path d="m331.641 171.596c-4.206-.95-9.738-5.017-14.409-11.014-4.666-5.99-7.249-12.341-7.147-16.659 2.669-.511 5.519.462 7.304 2.754l13.364 17.157c.859 1.103 1.354 2.366 1.526 3.652.178 1.395-.045 2.83-.638 4.11z" fill="#faefdc"/></g><g><path d="m346.959 223.968-7.638 5.949c-3.996 3.112-8.885 4.319-13.553 3.739-2.089-.259-4.139-.878-6.043-1.849-2.338-1.178-4.464-2.886-6.183-5.093-6.236-8.006-4.796-19.548 3.203-25.778l7.638-5.949c3.267-2.545 7.973-1.961 10.518 1.307l13.364 17.157c.865 1.11 1.365 2.38 1.529 3.684.312 2.529-.678 5.153-2.835 6.833z" fill="#f3c3b1"/><path d="m338.65 225.861c-5.617 4.387-12.347 6.322-18.924 5.946-2.338-1.178-4.464-2.886-6.183-5.093-6.236-8.006-4.796-19.548 3.203-25.778l7.638-5.949c3.267-2.545 7.973-1.961 10.518 1.307l13.364 17.157c.865 1.11 1.365 2.38 1.529 3.684z" fill="#ffd4c7"/><path d="m349.151 221.21c-4.206-.95-9.738-5.017-14.409-11.014-4.666-5.99-7.249-12.341-7.147-16.659 2.669-.511 5.519.462 7.304 2.754l13.364 17.157c.859 1.103 1.354 2.366 1.526 3.652.178 1.394-.045 2.829-.638 4.11z" fill="#faefdc"/></g><g><path d="m372.673 267.236-7.631 5.944c-4.003 3.118-8.885 4.319-13.56 3.745-1.993-.254-3.953-.83-5.784-1.721-2.446-1.185-4.657-2.929-6.441-5.221-6.23-7.999-4.795-19.548 3.21-25.784l7.631-5.944c3.267-2.545 7.973-1.96 10.518 1.307l13.364 17.157c.859 1.103 1.361 2.36 1.526 3.652.317 2.536-.669 5.179-2.833 6.865z" fill="#f3c3b1"/><path d="m364.197 269.236c-5.496 4.293-12.062 6.237-18.499 5.967-2.446-1.185-4.657-2.929-6.441-5.221-6.23-7.999-4.795-19.548 3.21-25.784l7.631-5.944c3.267-2.545 7.973-1.96 10.518 1.307l13.364 17.157c.859 1.103 1.361 2.36 1.526 3.652z" fill="#ffd4c7"/><path d="m374.865 264.478c-4.206-.95-9.738-5.017-14.409-11.014-4.666-5.99-7.249-12.341-7.147-16.659 2.669-.511 5.519.462 7.304 2.754l13.364 17.157c.859 1.103 1.354 2.366 1.526 3.652.178 1.394-.045 2.829-.638 4.11z" fill="#faefdc"/></g><g><path d="m384.078 321.655-7.631 5.944c-4.003 3.118-8.885 4.319-13.553 3.739-2.541-.316-5.004-1.158-7.233-2.502-1.871-1.133-3.572-2.616-4.993-4.44-6.236-8.006-4.808-19.55 3.198-25.786l7.631-5.944c3.267-2.545 7.978-1.953 10.523 1.314l13.364 17.157c.848 1.089 1.352 2.333 1.518 3.613.342 2.553-.646 5.208-2.824 6.905z" fill="#f3c3b1"/><path d="m376.322 323.049c-6.112 4.772-13.55 6.646-20.661 5.788-1.871-1.133-3.572-2.616-4.993-4.44-6.236-8.006-4.808-19.55 3.198-25.786l7.631-5.944c3.267-2.545 7.978-1.953 10.523 1.314l13.364 17.157c.848 1.089 1.352 2.333 1.518 3.613z" fill="#ffd4c7"/><path d="m386.267 318.893c-4.206-.95-9.738-5.017-14.409-11.014-4.666-5.99-7.249-12.341-7.147-16.659 2.669-.511 5.519.462 7.304 2.754l13.364 17.157c.859 1.103 1.354 2.366 1.526 3.652.178 1.395-.045 2.83-.638 4.11z" fill="#faefdc"/></g></g></g></g></g></svg>