<svg id="Capa_1" enable-background="new 0 0 512 512" height="512" viewBox="0 0 512 512" width="512" xmlns="http://www.w3.org/2000/svg"><g><g><g><path d="m512 98.862h-512v-45.789c0-11.495 9.318-20.813 20.813-20.813h470.374c11.495 0 20.813 9.318 20.813 20.813z" fill="#62a4fb"/></g><g><path d="m491.187 32.26h-29.138c11.495 0 20.813 9.318 20.813 20.813v45.789h29.138v-45.789c0-11.495-9.318-20.813-20.813-20.813z" fill="#5392f9"/></g><g><path d="m0 98.862h512v360.065c0 11.495-9.318 20.813-20.813 20.813h-470.374c-11.495 0-20.813-9.318-20.813-20.813z" fill="#e6f7fe"/></g><g><path d="m482.862 98.862v360.065c0 11.495-9.318 20.813-20.813 20.813h29.138c11.495 0 20.813-9.318 20.813-20.813v-360.065z" fill="#d3effd"/></g></g><g><circle cx="56.195" cy="155.057" fill="#f7e365" r="22.894"/></g><g><circle cx="56.195" cy="238.309" fill="#a2f5c3" r="22.894"/></g><g><circle cx="56.195" cy="321.561" fill="#e175a5" r="22.894"/></g><g><path d="m468.293 177.951h-308.033c-5.747 0-10.407-4.659-10.407-10.407v-24.976c0-5.747 4.659-10.407 10.407-10.407h308.033c5.747 0 10.406 4.659 10.406 10.407v24.976c0 5.748-4.659 10.407-10.406 10.407z" fill="#f7e365"/></g><g><path d="m468.293 132.163h-27.057c5.747 0 10.406 4.659 10.406 10.407v24.976c0 5.747-4.659 10.407-10.406 10.407h27.057c5.747 0 10.406-4.659 10.406-10.407v-24.976c0-5.748-4.659-10.407-10.406-10.407z" fill="#f3d332"/></g><g><path d="m418.341 261.203h-166.504c-5.747 0-10.407-4.659-10.407-10.406v-24.976c0-5.747 4.659-10.407 10.407-10.407h166.504c5.747 0 10.406 4.659 10.406 10.407v24.976c.001 5.747-4.658 10.406-10.406 10.406z" fill="#a2f5c3"/></g><g><path d="m418.341 215.415h-27.057c5.747 0 10.407 4.659 10.407 10.407v24.976c0 5.747-4.659 10.406-10.407 10.406h27.057c5.747 0 10.406-4.659 10.406-10.406v-24.976c.001-5.748-4.658-10.407-10.406-10.407z" fill="#88f2a9"/></g><g><path d="m203.967 344.455h214.374c5.747 0 10.406-4.659 10.406-10.406v-24.976c0-5.747-4.659-10.407-10.406-10.407h-214.374c-5.747 0-10.407 4.659-10.407 10.407v24.976c.001 5.747 4.66 10.406 10.407 10.406z" fill="#e175a5"/></g><g><path d="m418.341 298.667h-27.057c5.747 0 10.407 4.659 10.407 10.407v24.976c0 5.747-4.659 10.406-10.407 10.406h27.057c5.747 0 10.406-4.659 10.406-10.406v-24.976c.001-5.748-4.658-10.407-10.406-10.407z" fill="#de5791"/></g><g><circle cx="455.805" cy="65.561" fill="#a2f5c3" r="8.325"/></g><g><circle cx="422.504" cy="65.561" fill="#f7e365" r="8.325"/></g><g><circle cx="389.203" cy="65.561" fill="#e175a5" r="8.325"/></g><g><path d="m54.114 387.337h-20.813c-4.143 0-7.5-3.358-7.5-7.5s3.357-7.5 7.5-7.5h20.813c4.143 0 7.5 3.358 7.5 7.5s-3.357 7.5-7.5 7.5z" fill="#b2e5fb"/></g><g><path d="m54.114 420.638h-20.813c-4.143 0-7.5-3.358-7.5-7.5s3.357-7.5 7.5-7.5h20.813c4.143 0 7.5 3.358 7.5 7.5s-3.357 7.5-7.5 7.5z" fill="#b2e5fb"/></g><g><path d="m54.114 453.939h-20.813c-4.143 0-7.5-3.358-7.5-7.5s3.357-7.5 7.5-7.5h20.813c4.143 0 7.5 3.358 7.5 7.5s-3.357 7.5-7.5 7.5z" fill="#b2e5fb"/></g><g><path d="m170.667 387.337h-83.252c-4.143 0-7.5-3.358-7.5-7.5s3.357-7.5 7.5-7.5h83.252c4.143 0 7.5 3.358 7.5 7.5s-3.357 7.5-7.5 7.5z" fill="#b2e5fb"/></g><g><path d="m170.667 420.638h-83.252c-4.143 0-7.5-3.358-7.5-7.5s3.357-7.5 7.5-7.5h83.252c4.143 0 7.5 3.358 7.5 7.5s-3.357 7.5-7.5 7.5z" fill="#b2e5fb"/></g><g><path d="m170.667 453.939h-83.252c-4.143 0-7.5-3.358-7.5-7.5s3.357-7.5 7.5-7.5h83.252c4.143 0 7.5 3.358 7.5 7.5s-3.357 7.5-7.5 7.5z" fill="#b2e5fb"/></g><g><path d="m274.731 387.337h-20.812c-4.143 0-7.5-3.358-7.5-7.5s3.357-7.5 7.5-7.5h20.812c4.143 0 7.5 3.358 7.5 7.5s-3.357 7.5-7.5 7.5z" fill="#b2e5fb"/></g><g><path d="m274.731 420.638h-20.812c-4.143 0-7.5-3.358-7.5-7.5s3.357-7.5 7.5-7.5h20.812c4.143 0 7.5 3.358 7.5 7.5s-3.357 7.5-7.5 7.5z" fill="#b2e5fb"/></g><g><path d="m274.731 453.939h-20.812c-4.143 0-7.5-3.358-7.5-7.5s3.357-7.5 7.5-7.5h20.812c4.143 0 7.5 3.358 7.5 7.5s-3.357 7.5-7.5 7.5z" fill="#b2e5fb"/></g><g><path d="m391.284 387.337h-83.252c-4.143 0-7.5-3.358-7.5-7.5s3.357-7.5 7.5-7.5h83.252c4.143 0 7.5 3.358 7.5 7.5s-3.357 7.5-7.5 7.5z" fill="#b2e5fb"/></g><g><path d="m391.284 420.638h-83.252c-4.143 0-7.5-3.358-7.5-7.5s3.357-7.5 7.5-7.5h83.252c4.143 0 7.5 3.358 7.5 7.5s-3.357 7.5-7.5 7.5z" fill="#b2e5fb"/></g><g><path d="m391.284 453.939h-83.252c-4.143 0-7.5-3.358-7.5-7.5s3.357-7.5 7.5-7.5h83.252c4.143 0 7.5 3.358 7.5 7.5s-3.357 7.5-7.5 7.5z" fill="#b2e5fb"/></g><g><g><path d="m112.391 145.663c-4.143 0-7.5-3.358-7.5-7.5v-6c0-4.142 3.357-7.5 7.5-7.5s7.5 3.358 7.5 7.5v6c0 4.142-3.358 7.5-7.5 7.5z" fill="#30569f"/></g><g><path d="m112.391 315.141c-4.143 0-7.5-3.358-7.5-7.5v-11.555c0-4.142 3.357-7.5 7.5-7.5s7.5 3.358 7.5 7.5v11.555c0 4.142-3.358 7.5-7.5 7.5zm0-42.37c-4.143 0-7.5-3.358-7.5-7.5v-11.555c0-4.142 3.357-7.5 7.5-7.5s7.5 3.358 7.5 7.5v11.555c0 4.143-3.358 7.5-7.5 7.5zm0-42.369c-4.143 0-7.5-3.358-7.5-7.5v-11.555c0-4.142 3.357-7.5 7.5-7.5s7.5 3.358 7.5 7.5v11.555c0 4.142-3.358 7.5-7.5 7.5zm0-42.37c-4.143 0-7.5-3.358-7.5-7.5v-11.555c0-4.142 3.357-7.5 7.5-7.5s7.5 3.358 7.5 7.5v11.555c0 4.142-3.358 7.5-7.5 7.5z" fill="#30569f"/></g><g><path d="m112.391 351.955c-4.143 0-7.5-3.358-7.5-7.5v-6c0-4.142 3.357-7.5 7.5-7.5s7.5 3.358 7.5 7.5v6c0 4.142-3.358 7.5-7.5 7.5z" fill="#30569f"/></g></g></g></svg>