<svg id="fleche1" xmlns="http://www.w3.org/2000/svg" viewBox="0 0 30.34 98.99"><defs><style>.cls-1{fill:none;stroke:#333;stroke-miterlimit:10;stroke-width:3px;}.cls-2{fill:#333;}</style></defs><title>arrow9</title><line class="cls-1" x1="15.16" y1="98.99" x2="15.17" y2="13.37"/><path class="cls-2" d="M89,69.82c6.33-3.75,11.3-9.58,15.17-15.78a48.41,48.41,0,0,0,15.17,15.79v3.74a52.58,52.58,0,0,1-15.17-14.5A53.43,53.43,0,0,1,89,73.62V69.82Z" transform="translate(-89.02 -54.04)"/><path class="cls-2" d="M89,78.84c6.33-3.75,11.3-9.58,15.17-15.78a48.4,48.4,0,0,0,15.17,15.78v3.74A52.6,52.6,0,0,1,104.2,68.1,53.48,53.48,0,0,1,89,82.65V78.84Z" transform="translate(-89.02 -54.04)"/></svg>